<svg width="223" height="224" xmlns="http://www.w3.org/2000/svg" xmlns:xlink="http://www.w3.org/1999/xlink" overflow="hidden"><defs><clipPath id="clip0"><rect x="961" y="342" width="223" height="224"/></clipPath><clipPath id="clip1"><rect x="962" y="343" width="222" height="223"/></clipPath><clipPath id="clip2"><rect x="962" y="343" width="222" height="223"/></clipPath><clipPath id="clip3"><rect x="962" y="343" width="222" height="223"/></clipPath></defs><g clip-path="url(#clip0)" transform="translate(-961 -342)"><g clip-path="url(#clip1)"><g clip-path="url(#clip2)"><g clip-path="url(#clip3)"><path d="M189.255 64.75 200.817 64.75C197.435 60.4013 193.43 56.5755 188.931 53.3956 186.224 44.3531 177.905 38.1581 168.466 38.1562 153.504 38.1562 139.027 55.6156 132.807 67.1781 102.658 73.4457 75.9467 90.7696 57.9281 115.741L21.7144 152.001C20.5138 153.202 20.5148 155.15 21.7165 156.35 22.2927 156.926 23.0737 157.25 23.8881 157.25L36.1213 157.25 36.1213 169.483C36.1224 171.182 37.5004 172.558 39.199 172.557 40.0134 172.556 40.7943 172.232 41.3706 171.657L70.8319 142.196C80.8896 147.258 91.9496 150.016 103.207 150.266L103.207 166.454C100.652 166.454 98.5819 168.524 98.5819 171.079 98.5819 173.633 100.652 175.704 103.207 175.704L105.982 175.704 113.844 183.566C115.541 185.354 118.366 185.428 120.154 183.732 120.211 183.678 120.266 183.623 120.319 183.566 122.107 181.87 122.181 179.045 120.485 177.257 120.431 177.2 120.376 177.145 120.319 177.091L118.932 175.704 124.019 175.704C126.574 175.704 128.644 173.633 128.644 171.079 128.644 168.524 126.574 166.454 124.019 166.454L112.457 166.454 112.457 149.942C115.567 149.647 118.656 149.16 121.707 148.486L121.707 157.25C119.152 157.25 117.082 159.321 117.082 161.875L124.019 161.875C129.128 161.885 133.261 166.035 133.251 171.144 133.248 172.326 133.019 173.497 132.576 174.594 133.418 175.308 134.478 175.716 135.582 175.75 136.802 175.733 137.965 175.234 138.819 174.363 140.607 172.666 140.681 169.841 138.985 168.053 138.931 167.996 138.876 167.941 138.819 167.887L137.432 166.5 142.519 166.5C145.074 166.5 147.144 164.429 147.144 161.875 147.144 159.321 145.074 157.25 142.519 157.25L130.957 157.25 130.957 145.826C160.363 135.234 180.356 107.804 181.439 76.5669 185.314 73.6328 188.071 69.464 189.255 64.75Z" fill="#404040" fill-rule="nonzero" fill-opacity="1" transform="matrix(-1 0 0 1.0045 1184 343)"/></g></g></g></g></svg>