<svg width="539" height="539" xmlns="http://www.w3.org/2000/svg" xmlns:xlink="http://www.w3.org/1999/xlink" overflow="hidden"><defs><clipPath id="clip0"><rect x="42" y="117" width="539" height="539"/></clipPath><clipPath id="clip1"><rect x="43" y="118" width="538" height="538"/></clipPath><clipPath id="clip2"><rect x="43" y="118" width="538" height="538"/></clipPath><clipPath id="clip3"><rect x="43" y="118" width="538" height="538"/></clipPath></defs><g clip-path="url(#clip0)" transform="translate(-42 -117)"><g clip-path="url(#clip1)"><g clip-path="url(#clip2)"><g clip-path="url(#clip3)"><path d="M476.762 253.621 429.688 185.25 429.688 165.075C429.688 160.031 423.523 157.79 420.16 161.152L342.823 233.446C333.856 241.852 328.812 253.621 328.812 265.95L328.812 269.312C328.812 316.948 199.917 336.562 199.917 487.875 199.917 508.05 201.038 525.423 203.84 539.994 202.719 538.873 201.598 537.752 199.917 536.631 187.027 524.302 171.896 496.842 171.896 437.438 171.896 416.702 181.983 395.406 192.071 375.231 207.762 342.727 225.696 305.74 194.873 274.356 188.148 267.631 177.5 267.631 171.335 274.356 164.61 281.081 164.61 291.729 171.335 297.894 184.225 310.783 178.621 325.915 162.369 360.1 150.6 383.077 138.271 409.417 138.271 437.438 138.271 495.16 151.721 537.192 177.5 561.85 190.95 574.74 205.521 579.783 215.608 582.025 226.256 604.442 239.146 611.167 244.75 611.167L312 611.167C321.527 611.167 328.812 603.881 328.812 594.354 328.812 585.948 322.648 578.662 314.242 577.542L295.188 577.542C316.483 565.773 334.417 541.675 334.417 499.083 334.417 462.096 327.131 446.965 302.473 433.515 298.55 431.273 296.869 426.229 299.11 422.306 301.352 418.383 306.396 416.702 310.319 418.944 344.504 436.877 351.229 462.096 351.229 499.083 351.229 519.258 347.306 537.192 340.021 552.323L340.021 594.354C340.021 603.881 347.306 611.167 356.833 611.167 366.36 611.167 373.646 603.881 373.646 594.354L373.646 542.796C377.569 538.312 381.492 533.269 384.854 527.665L384.854 594.354C384.854 603.881 392.14 611.167 401.667 611.167 411.194 611.167 418.479 603.881 418.479 594.354L418.479 445.283C422.402 428.471 424.083 413.9 424.083 403.812 424.083 359.54 412.875 355.056 412.875 330.958 412.875 318.629 422.962 308.542 435.292 308.542 459.95 308.542 480.125 288.367 480.125 263.708 480.125 259.785 479.004 256.423 476.762 253.621Z" fill="#404040" fill-rule="nonzero" fill-opacity="1"/></g></g></g></g></svg>